<svg xmlns="http://www.w3.org/2000/svg" viewBox="0 0 32 30" x="0px" y="0px"><path fill="#000" fill-rule="evenodd" d="M23.876 9.492C23.837 9.487 19.888 9 16 9c-3.893 0-7.836.487-7.876.492l-.248-1.984C8.042 7.488 11.984 7 16 7c4.016 0 7.958.487 8.124.508l-.248 1.984zM20 15h5v-2h-5v2zM7 15h5v-2H7v2zm23-3h-2v9a1 1 0 0 1-1 1h-1a1 1 0 0 1-1-1v-2H7v2c0 .552-.449 1-1 1H5c-.551 0-1-.448-1-1v-9H2v-2h3.867l.918-6.422a.99.99 0 0 1 .824-.845C9.312 2.46 12.666 2 16 2c3.334 0 6.689.46 8.392.733.429.07.76.408.823.845L26.133 10H30v2zm0-4h-2.133l-.672-4.705A2.98 2.98 0 0 0 24.709.76C22.947.475 19.473 0 16 0S9.053.475 7.293.76a2.98 2.98 0 0 0-2.488 2.535L4.133 8H2c-1.103 0-2 .897-2 2v2c0 1.102.897 2 2 2v7c0 1.654 1.346 3 3 3h1c1.654 0 3-1.346 3-3h14c0 1.654 1.346 3 3 3h1c1.654 0 3-1.346 3-3v-7c1.103 0 2-.898 2-2v-2c0-1.103-.897-2-2-2z"/><text x="0" y="39" fill="#000000" font-size="5px" font-weight="bold" font-family="'Helvetica Neue', Helvetica, Arial-Unicode, Arial, Sans-serif">Created by Denis Shumaylov</text><text x="0" y="44" fill="#000000" font-size="5px" font-weight="bold" font-family="'Helvetica Neue', Helvetica, Arial-Unicode, Arial, Sans-serif">from the Noun Project</text></svg>