<svg xmlns="http://www.w3.org/2000/svg" viewBox="0 0 30 27.5" x="0px" y="0px"><path fill="#000" fill-rule="evenodd" d="M28 17h-1.051c-.252-2.244-2.138-4-4.449-4s-4.197 1.756-4.449 4h-6.102c-.252-2.244-2.138-4-4.449-4s-4.197 1.756-4.449 4H2V9.123l1.591-6.365A1 1 0 0 1 4.562 2H5.72L4.651 6.272a2.988 2.988 0 0 0 .546 2.575A2.986 2.986 0 0 0 7.562 10H27a1 1 0 0 1 1 1v6zm-5.5 3a2.502 2.502 0 0 1-2.5-2.5c0-1.379 1.121-2.5 2.5-2.5s2.5 1.121 2.5 2.5-1.121 2.5-2.5 2.5zm-15 0A2.502 2.502 0 0 1 5 17.5C5 16.121 6.121 15 7.5 15s2.5 1.121 2.5 2.5S8.879 20 7.5 20zM27 8H7.562a.997.997 0 0 1-.789-.385.994.994 0 0 1-.182-.858L7.78 2H12v4h2V2h3.764c.382 0 .724.212.894.553l1.947 3.894 1.79-.894-1.948-3.895A2.985 2.985 0 0 0 17.764 0H4.562a2.997 2.997 0 0 0-2.911 2.272L.03 8.758 0 17c0 1.103.897 2 2 2h1.276c.621 1.742 2.271 3 4.224 3 1.953 0 3.603-1.258 4.224-3h6.552c.621 1.742 2.271 3 4.224 3 1.953 0 3.603-1.258 4.224-3H28c1.103 0 2-.897 2-2v-6c0-1.654-1.346-3-3-3z"/><text x="0" y="37" fill="#000000" font-size="5px" font-weight="bold" font-family="'Helvetica Neue', Helvetica, Arial-Unicode, Arial, Sans-serif">Created by Denis Shumaylov</text><text x="0" y="42" fill="#000000" font-size="5px" font-weight="bold" font-family="'Helvetica Neue', Helvetica, Arial-Unicode, Arial, Sans-serif">from the Noun Project</text></svg>