<svg xmlns="http://www.w3.org/2000/svg" viewBox="0 0 28 35" x="0px" y="0px"><path fill="#000" fill-rule="evenodd" d="M18.853 14.655l.294 1.98A35.124 35.124 0 0 1 14 17a35.12 35.12 0 0 1-5.147-.366l.294-1.979c3.07.457 6.636.457 9.706 0zM26 15h-3V9h-2v16.238c-1.127.276-3.587.762-7 .762s-5.875-.486-7-.762V9H5v6H2V8c0-3.309 2.692-6 6-6h1.1A5.009 5.009 0 0 0 14 6a5.01 5.01 0 0 0 4.9-4H20c3.308 0 6 2.691 6 6v7zm2-7c0-4.41-3.589-8-8-8h-3v1c0 1.654-1.346 3-3 3s-3-1.346-3-3V0H8C3.589 0 0 3.59 0 8v9h5v9.72l.683.228C5.813 26.991 8.897 28 14 28s8.188-1.009 8.317-1.052L23 26.72V17h5V8z"/><text x="0" y="43" fill="#000000" font-size="5px" font-weight="bold" font-family="'Helvetica Neue', Helvetica, Arial-Unicode, Arial, Sans-serif">Created by Denis Shumaylov</text><text x="0" y="48" fill="#000000" font-size="5px" font-weight="bold" font-family="'Helvetica Neue', Helvetica, Arial-Unicode, Arial, Sans-serif">from the Noun Project</text></svg>