<svg xmlns="http://www.w3.org/2000/svg" viewBox="0 0 30 32.5" x="0px" y="0px"><path fill="#000" fill-rule="evenodd" d="M5 10h6V8H5v2zM2 4h14v2H2v13h14v2h-5v3h4v2H5v-2h4v-3H2c-1.103 0-2-.897-2-2V6c0-1.103.897-2 2-2zm21 18h2v-2h-2v2zm-1-12h4V8h-4v2zm0-4h4V4h-4v2zm-2 18l-.001-6H28v6h-8zm8-22v14h-8.001l-.001-14H28zm0-2h-8c-1.103 0-2 .897-2 2v24h12V2c0-1.103-.897-2-2-2z"/><text x="0" y="41" fill="#000000" font-size="5px" font-weight="bold" font-family="'Helvetica Neue', Helvetica, Arial-Unicode, Arial, Sans-serif">Created by Denis Shumaylov</text><text x="0" y="46" fill="#000000" font-size="5px" font-weight="bold" font-family="'Helvetica Neue', Helvetica, Arial-Unicode, Arial, Sans-serif">from the Noun Project</text></svg>