<svg xmlns="http://www.w3.org/2000/svg" viewBox="0 0 24 40" x="0px" y="0px"><path fill="#000" fill-rule="evenodd" d="M6 29c0 .551-.449 1-1 1-.551 0-1-.449-1-1v-9.268l1-.577 1 .577V29zM8 8c0 1.369-.521 3-3 3S2 9.369 2 8V0H0v8c0 2.183 1.078 4.494 4 4.923v4.5l-2 1.155V29c0 1.654 1.346 3 3 3s3-1.346 3-3V18.578l-2-1.155v-4.5c2.922-.429 4-2.74 4-4.923V0H8v8zM4 8h2V0H4v8zm16 21c0 .551-.449 1-1 1-.551 0-1-.449-1-1v-9.268l1-.577 1 .577V29zM16 8c0-3.663 1.777-6 3-6s3 2.337 3 6c0 1.369-.521 3-3 3s-3-1.631-3-3zm8 0c0-4.411-2.243-8-5-8s-5 3.589-5 8c0 2.183 1.078 4.494 4 4.923v4.5l-2 1.155V29c0 1.654 1.346 3 3 3s3-1.346 3-3V18.578l-2-1.155v-4.5c2.922-.429 4-2.74 4-4.923z"/><text x="0" y="47" fill="#000000" font-size="5px" font-weight="bold" font-family="'Helvetica Neue', Helvetica, Arial-Unicode, Arial, Sans-serif">Created by Denis Shumaylov</text><text x="0" y="52" fill="#000000" font-size="5px" font-weight="bold" font-family="'Helvetica Neue', Helvetica, Arial-Unicode, Arial, Sans-serif">from the Noun Project</text></svg>