<svg xmlns="http://www.w3.org/2000/svg" viewBox="0 0 28 37.5" x="0px" y="0px"><path fill="#000" fill-rule="evenodd" d="M11.293 2.707A4.384 4.384 0 0 0 14.414 4h1.172a4.384 4.384 0 0 0 3.121-1.293A2.4 2.4 0 0 1 20.414 2H22a1 1 0 0 1 1 1v1h2V3c0-1.654-1.346-3-3-3h-1.586a4.384 4.384 0 0 0-3.121 1.293A2.4 2.4 0 0 1 15.586 2h-1.172a2.4 2.4 0 0 1-1.707-.707A4.384 4.384 0 0 0 9.586 0H7v2h2.586c.645 0 1.251.251 1.707.707zM4 25h13v-2H4v2zm24 5H0V15.341L7.795 12H10v2.483L15.795 12H18v7h-2v-4.912l-6 2.571V19H8v-4.912l-6 2.571V28h24v-5l-.939-15h-2.122l-.941 15.062L22 25h-2v-2l1.061-17h5.878l1.059 16.937L28 30z"/><text x="0" y="45" fill="#000000" font-size="5px" font-weight="bold" font-family="'Helvetica Neue', Helvetica, Arial-Unicode, Arial, Sans-serif">Created by Denis Shumaylov</text><text x="0" y="50" fill="#000000" font-size="5px" font-weight="bold" font-family="'Helvetica Neue', Helvetica, Arial-Unicode, Arial, Sans-serif">from the Noun Project</text></svg>