<?xml version="1.0" encoding="UTF-8"?>
<svg width="29px" height="8px" viewBox="0 0 29 8" version="1.1" xmlns="http://www.w3.org/2000/svg" xmlns:xlink="http://www.w3.org/1999/xlink">
    <!-- Generator: Sketch 55.1 (78136) - https://sketchapp.com -->
    <title>menu-icon</title>
    <desc>Created with Sketch.</desc>
    <g id="Prototype" stroke="none" stroke-width="1" fill="none" fill-rule="evenodd">
        <g id="iPhone-8" transform="translate(-110.000000, -554.000000)" fill="#7D8CA1" fill-rule="nonzero">
            <g id="menu-icon" transform="translate(110.000000, 554.000000)">
                <path d="M25.5,8 C23.567003,8 22,6.4329966 22,4.5 C22,2.5670034 23.567003,1 25.5,1 C27.432997,1 29,2.5670034 29,4.5 C29,6.4329966 27.432997,8 25.5,8 Z M14.5,7.8221925 C12.567003,7.8221925 11,6.2551891 11,4.3221925 C11,2.3891959 12.567003,0.8221925 14.5,0.8221925 C16.432997,0.8221925 18,2.3891959 18,4.3221925 C18,6.2551891 16.432997,7.8221925 14.5,7.8221925 Z M3.5,7.8221925 C1.567003,7.8221925 0,6.2551891 0,4.3221925 C0,2.3891959 1.567003,0.8221925 3.5,0.8221925 C5.432997,0.8221925 7,2.3891959 7,4.3221925 C7,6.2551891 5.432997,7.8221925 3.5,7.8221925 Z"></path>
            </g>
        </g>
    </g>
</svg>