<?xml version="1.0" encoding="UTF-8"?>
<svg width="35px" height="8px" viewBox="0 0 35 8" version="1.1" xmlns="http://www.w3.org/2000/svg" xmlns:xlink="http://www.w3.org/1999/xlink">
    <!-- Generator: Sketch 55 (78076) - https://sketchapp.com -->
    <title>menu-icon</title>
    <desc>Created with Sketch.</desc>
    <g id="Page-1" stroke="none" stroke-width="1" fill="none" fill-rule="evenodd">
        <g id="iPhone-8" transform="translate(-309.000000, -35.000000)" fill="#FFFFFF">
            <path d="M340.5,43 C338.567003,43 337,41.4329966 337,39.5 C337,37.5670034 338.567003,36 340.5,36 C342.432997,36 344,37.5670034 344,39.5 C344,41.4329966 342.432997,43 340.5,43 Z M326.5,42.8221925 C324.567003,42.8221925 323,41.2551891 323,39.3221925 C323,37.3891959 324.567003,35.8221925 326.5,35.8221925 C328.432997,35.8221925 330,37.3891959 330,39.3221925 C330,41.2551891 328.432997,42.8221925 326.5,42.8221925 Z M312.5,42.8221925 C310.567003,42.8221925 309,41.2551891 309,39.3221925 C309,37.3891959 310.567003,35.8221925 312.5,35.8221925 C314.432997,35.8221925 316,37.3891959 316,39.3221925 C316,41.2551891 314.432997,42.8221925 312.5,42.8221925 Z" id="menu-icon"></path>
        </g>
    </g>
</svg>