<svg xmlns="http://www.w3.org/2000/svg" viewBox="0 0 32 32.5" x="0px" y="0px"><path fill="#000" fill-rule="evenodd" d="M6 14h9v-2H6v2zm0-5h9V7H6v2zm22.949 12c-.252-2.244-2.138-4-4.449-4s-4.197 1.756-4.449 4h-8.102c-.252-2.244-2.138-4-4.449-4s-4.197 1.756-4.449 4H2V3a1 1 0 0 1 1-1h20.764c.382 0 .724.212.894.553L26.382 6H22c-1.654 0-3 1.346-3 3v5h2V9a1 1 0 0 1 1-1h5.382l2 4H24v2h6v7h-1.051zM24.5 24a2.502 2.502 0 0 1-2.5-2.5c0-1.379 1.121-2.5 2.5-2.5s2.5 1.121 2.5 2.5-1.121 2.5-2.5 2.5zm-17 0A2.502 2.502 0 0 1 5 21.5C5 20.121 6.121 19 7.5 19s2.5 1.121 2.5 2.5S8.879 24 7.5 24zM26.447 1.658A2.985 2.985 0 0 0 23.764 0H3C1.346 0 0 1.346 0 3v18c0 1.103.897 2 2 2h1.276c.621 1.742 2.271 3 4.224 3 1.953 0 3.603-1.258 4.224-3h8.552c.621 1.742 2.271 3 4.224 3 1.953 0 3.603-1.258 4.224-3H30c1.103 0 2-.897 2-2v-8.236L26.447 1.658z"/><text x="0" y="41" fill="#000000" font-size="5px" font-weight="bold" font-family="'Helvetica Neue', Helvetica, Arial-Unicode, Arial, Sans-serif">Created by Denis Shumaylov</text><text x="0" y="46" fill="#000000" font-size="5px" font-weight="bold" font-family="'Helvetica Neue', Helvetica, Arial-Unicode, Arial, Sans-serif">from the Noun Project</text></svg>