<svg xmlns="http://www.w3.org/2000/svg" viewBox="0 0 26 37.5" x="0px" y="0px"><path fill="#000" fill-rule="evenodd" d="M7.541 25.683l-.508 1.016a2.353 2.353 0 0 1-4.339-.31 2.343 2.343 0 0 1 .128-1.796l.5-1a2.34 2.34 0 0 1 1.361-1.181 2.346 2.346 0 0 1 1.797.128 2.358 2.358 0 0 1 1.061 3.143zm1.629-3.26a4.33 4.33 0 0 0-1.795-1.672 4.32 4.32 0 0 0-3.324-.236 4.323 4.323 0 0 0-2.518 2.184l-.5 1a4.322 4.322 0 0 0-.236 3.323A4.328 4.328 0 0 0 2.98 29.54a4.36 4.36 0 0 0 5.842-1.947l.5-1 .011-.021 2.562-5.124-1.79-.895-.935 1.87zm6.725-8.975l-1.79-.895L20.382 0H21c1.654 0 3 1.346 3 3 0 .255-.024 6.285-2.105 10.448l-1.448 2.894A2.982 2.982 0 0 1 17.764 18H16v-2h1.764a.995.995 0 0 0 .894-.552l1.447-2.895C21.974 8.817 22 3.058 22 3a.997.997 0 0 0-.461-.841l-5.644 11.289zm7.411 12.942a2.338 2.338 0 0 1-1.182 1.36 2.328 2.328 0 0 1-1.796.128 2.334 2.334 0 0 1-1.361-1.18l-.5-1a2.358 2.358 0 0 1 1.052-3.16 2.358 2.358 0 0 1 3.159 1.054l.5 1c.281.563.326 1.2.128 1.798zM8.236 16a.995.995 0 0 1-.894-.552l-1.447-2.895C4.026 8.817 4 3.058 4 3c0-.353.184-.664.461-.841l6.921 13.84H8.236zm16.731 7.698l-.5-1a4.36 4.36 0 0 0-5.843-1.948 4.336 4.336 0 0 0-1.794 1.673L5.618 0H5C3.346 0 2 1.346 2 3c0 .255.024 6.285 2.105 10.448l1.448 2.894A2.982 2.982 0 0 0 8.236 18h4.146l4.296 8.592.5 1a4.324 4.324 0 0 0 2.517 2.184 4.331 4.331 0 0 0 3.324-.237 4.321 4.321 0 0 0 2.184-2.517 4.325 4.325 0 0 0-.236-3.324z"/><text x="0" y="45" fill="#000000" font-size="5px" font-weight="bold" font-family="'Helvetica Neue', Helvetica, Arial-Unicode, Arial, Sans-serif">Created by Denis Shumaylov</text><text x="0" y="50" fill="#000000" font-size="5px" font-weight="bold" font-family="'Helvetica Neue', Helvetica, Arial-Unicode, Arial, Sans-serif">from the Noun Project</text></svg>