<svg xmlns="http://www.w3.org/2000/svg" viewBox="0 0 32 25" x="0px" y="0px"><path fill="#000" fill-rule="evenodd" d="M5 10h3V8H5v2zm7.129 4.929A14.918 14.918 0 0 0 17.692 16h5.072c1.616 0 3.235-.382 4.683-1.105l-.894-1.79a8.525 8.525 0 0 1-3.789.895h-5.072c-1.658 0-3.28-.312-4.821-.929A14.918 14.918 0 0 0 7.308 12H2.014c.084-3.13.54-5.763.791-7h.815c.753 0 1.508.174 2.184.502l1.636.795c.947.46 2.004.703 3.058.703H12V5h-1.502a5.032 5.032 0 0 1-2.184-.502l-1.636-.795A7.038 7.038 0 0 0 3.62 3H1.219l-.189.758C.988 3.926 0 7.936 0 13v1h7.308c1.658 0 3.28.313 4.821.929zm16.683 4.284c-.966.483-2.149.787-3.234.787H3c-1.654 0-3-1.346-3-3v-1h2v1a1 1 0 0 0 1 1h22.578c.776 0 1.65-.231 2.343-.578A3.747 3.747 0 0 0 30 14.053V11c0-1.654-1.346-3-3-3h-1.292a4.024 4.024 0 0 1-1.788-.422l-.473-.236-1.552 3.105-1.79-.894 1.553-3.106-2.211-1.105-1.552 3.105-1.79-.894 1.553-3.106-4.316-2.158A.994.994 0 0 0 12 2.736l-.105.211-1.79-.894.106-.211A2.984 2.984 0 0 1 11.945.337 2.99 2.99 0 0 1 14.236.5l10.577 5.289c.277.138.586.211.895.211H27c2.757 0 5 2.243 5 5v3c0 2.252-1.222 4.229-3.188 5.213z"/><text x="0" y="35" fill="#000000" font-size="5px" font-weight="bold" font-family="'Helvetica Neue', Helvetica, Arial-Unicode, Arial, Sans-serif">Created by Denis Shumaylov</text><text x="0" y="40" fill="#000000" font-size="5px" font-weight="bold" font-family="'Helvetica Neue', Helvetica, Arial-Unicode, Arial, Sans-serif">from the Noun Project</text></svg>